<?xml version="1.0" encoding="utf-8"?>
<!-- Generator: Adobe Illustrator 18.1.0, SVG Export Plug-In . SVG Version: 6.00 Build 0)  -->
<svg version="1.1" id="Calque_1" xmlns="http://www.w3.org/2000/svg" xmlns:xlink="http://www.w3.org/1999/xlink" x="0px" y="0px"
	 width="14px" height="14px" viewBox="-290 413.9 14 14" enable-background="new -290 413.9 14 14" xml:space="preserve">
<title>Smiley</title>
<desc>Created with Sketch.</desc>
<g id="Page-1">
	<g id="Projet" transform="translate(-331.000000, -68.000000)">
		<g id="Smiley" transform="translate(331.000000, 68.000000)">
			<g id="Clip-2">
			</g>
			<defs>
				<filter id="Adobe_OpacityMaskFilter" filterUnits="userSpaceOnUse" x="-290" y="413.9" width="13.9" height="13.9">
					<feColorMatrix  type="matrix" values="1 0 0 0 0  0 1 0 0 0  0 0 1 0 0  0 0 0 1 0"/>
				</filter>
			</defs>
			<mask maskUnits="userSpaceOnUse" x="-290" y="413.9" width="13.9" height="13.9" id="mask-2">
				<g filter="url(#Adobe_OpacityMaskFilter)">
					<polygon id="path-1" fill="#FFFFFF" points="-276.1,427.8 -276.1,413.9 -290,413.9 -290,427.8 					"/>
				</g>
			</mask>
			<path id="Fill-1" mask="url(#mask-2)" fill="#317DDB" d="M-279.5,419.4c0,0.2-0.1,0.4-0.3,0.6c-0.2,0.2-0.4,0.3-0.6,0.3
				c-0.2,0-0.4-0.1-0.6-0.3c-0.2-0.2-0.3-0.4-0.3-0.6c0-0.2,0.1-0.5,0.3-0.6c0.2-0.2,0.4-0.3,0.6-0.3c0.2,0,0.5,0.1,0.6,0.3
				C-279.6,419-279.5,419.2-279.5,419.4 M-279.8,424.8l-0.7,0.4c-0.6-1-1.4-1.6-2.5-1.6c-1.1,0-2,0.5-2.5,1.6l-0.7-0.4
				c0.4-0.7,0.8-1.2,1.3-1.6c0.5-0.4,1.2-0.5,1.9-0.5c0.7,0,1.3,0.2,1.9,0.5S-280.2,424.1-279.8,424.8 M-284.8,419.4
				c0,0.2-0.1,0.4-0.3,0.6c-0.2,0.2-0.4,0.3-0.6,0.3c-0.2,0-0.4-0.1-0.6-0.3c-0.2-0.2-0.3-0.4-0.3-0.6c0-0.2,0.1-0.5,0.3-0.6
				c0.2-0.2,0.4-0.3,0.6-0.3c0.2,0,0.5,0.1,0.6,0.3C-284.9,419-284.8,419.2-284.8,419.4 M-277.1,420.8c0-1.6-0.6-3-1.7-4.2
				c-1.2-1.2-2.6-1.7-4.2-1.7s-3,0.6-4.2,1.7c-1.2,1.2-1.7,2.6-1.7,4.2c0,1.6,0.6,3,1.7,4.2c1.2,1.2,2.6,1.7,4.2,1.7s3-0.6,4.2-1.7
				C-277.7,423.9-277.1,422.5-277.1,420.8 M-276.1,420.8c0,1.9-0.7,3.6-2,4.9c-1.4,1.4-3,2-4.9,2s-3.6-0.7-4.9-2c-1.4-1.4-2-3-2-4.9
				c0-1.9,0.7-3.6,2-4.9c1.4-1.4,3-2,4.9-2s3.6,0.7,4.9,2C-276.8,417.3-276.1,418.9-276.1,420.8"/>
		</g>
	</g>
</g>
</svg>
