<?xml version="1.0" encoding="UTF-8" standalone="no"?>
<svg width="14px" height="14px" viewBox="0 0 14 14" version="1.1" xmlns="http://www.w3.org/2000/svg" xmlns:xlink="http://www.w3.org/1999/xlink">
    <!-- Generator: Sketch 40 (33762) - http://www.bohemiancoding.com/sketch -->
    <title>Smiley</title>
    <desc>Created with Sketch.</desc>
    <defs>
        <polygon id="path-1" points="13.9060444 13.9059511 13.9060444 6.22222215e-05 9.33333331e-05 6.22222215e-05 9.33333331e-05 13.9059511 13.9060444 13.9059511"></polygon>
    </defs>
    <g id="Page-1" stroke="none" stroke-width="1" fill="none" fill-rule="evenodd">
        <g id="Projet" transform="translate(-331.000000, -68.000000)">
            <g id="Smiley" transform="translate(331.000000, 68.000000)">
                <mask id="mask-2" fill="white">
                    <use xlink:href="#path-1"></use>
                </mask>
                <g id="Clip-2"></g>
                <path d="M10.5032044,5.51870667 C10.5032044,5.75857333 10.4176489,5.96577333 10.2468489,6.14061778 C10.0757378,6.31515111 9.86698222,6.40226222 9.61964889,6.40226222 C9.37978222,6.40226222 9.17258222,6.31515111 8.99804889,6.14061778 C8.82351556,5.96577333 8.73640444,5.75857333 8.73640444,5.51870667 C8.73640444,5.27168444 8.82351556,5.06261778 8.99804889,4.89150667 C9.17258222,4.72101778 9.37978222,4.63546222 9.61964889,4.63546222 C9.86698222,4.63546222 10.0757378,4.72101778 10.2468489,4.89150667 C10.4176489,5.06261778 10.5032044,5.27168444 10.5032044,5.51870667 M3.75178222,9.19417333 L4.42813778,8.80186222 C5.00244889,9.84875111 5.84587111,10.3723511 6.95840444,10.3723511 C8.07093778,10.3723511 8.91062667,9.84875111 9.47809333,8.80186222 L10.1650267,9.19417333 C9.80133778,9.88515111 9.35240444,10.4121733 8.81791556,10.7758622 C8.28373778,11.1395511 7.66369333,11.32124 6.95840444,11.32124 C6.24564889,11.32124 5.62404889,11.1395511 5.09329333,10.7758622 C4.56253778,10.4121733 4.11547111,9.88515111 3.75178222,9.19417333 M5.16982667,5.51870667 C5.16982667,5.75857333 5.08427111,5.96577333 4.91347111,6.14061778 C4.74236,6.31515111 4.53360444,6.40226222 4.28627111,6.40226222 C4.04640444,6.40226222 3.83920444,6.31515111 3.66467111,6.14061778 C3.49013778,5.96577333 3.40271556,5.75857333 3.40271556,5.51870667 C3.40271556,5.27168444 3.49013778,5.06261778 3.66467111,4.89150667 C3.83920444,4.72101778 4.04640444,4.63546222 4.28627111,4.63546222 C4.53360444,4.63546222 4.74236,4.72101778 4.91347111,4.89150667 C5.08427111,5.06261778 5.16982667,5.27168444 5.16982667,5.51870667 M12.9024933,6.95852889 C12.9024933,5.31524 12.3228933,3.91368444 11.1630711,2.75386222 C10.0032489,1.59404 8.60169333,1.01412889 6.95840444,1.01412889 C5.31511556,1.01412889 3.91356,1.59404 2.75373778,2.75386222 C1.59391556,3.91368444 1.01431556,5.31524 1.01431556,6.95852889 C1.01431556,8.59435111 1.59391556,9.99248444 2.75373778,11.1519956 C3.91356,12.3118178 5.31511556,12.8917289 6.95840444,12.8917289 C8.60169333,12.8917289 10.0032489,12.3118178 11.1630711,11.1519956 C12.3228933,9.99248444 12.9024933,8.59435111 12.9024933,6.95852889 M13.9061378,6.95852889 C13.9061378,8.87808444 13.2279156,10.5157733 11.8720933,11.8719067 C10.51596,13.22804 8.87796,13.9059511 6.95840444,13.9059511 C5.03884889,13.9059511 3.39929333,13.22804 2.03942667,11.8719067 C0.679871111,10.5157733 9.33333331e-05,8.87808444 9.33333331e-05,6.95852889 C9.33333331e-05,5.03181778 0.679871111,3.39039556 2.03942667,2.03395111 C3.39929333,0.677817778 5.03884889,-9.33333331e-05 6.95840444,-9.33333331e-05 C8.87796,-9.33333331e-05 10.51596,0.677817778 11.8720933,2.03395111 C13.2279156,3.39039556 13.9061378,5.03181778 13.9061378,6.95852889" id="Fill-1" fill="#317DDB" mask="url(#mask-2)"></path>
            </g>
        </g>
    </g>
</svg>